<svg width="66" height="61" viewBox="0 0 66 61" fill="none" xmlns="http://www.w3.org/2000/svg">
<circle cx="3" cy="3" r="3" fill="#4585C6" fill-opacity="0.35"/>
<circle cx="15" cy="3" r="3" fill="#4585C6" fill-opacity="0.35"/>
<circle cx="27" cy="3" r="3" fill="#4585C6" fill-opacity="0.35"/>
<circle cx="39" cy="3" r="3" fill="#4585C6" fill-opacity="0.35"/>
<circle cx="51" cy="3" r="3" fill="#4585C6" fill-opacity="0.35"/>
<circle cx="63" cy="3" r="3" fill="#4585C6" fill-opacity="0.35"/>
<circle cx="3" cy="14" r="3" fill="#4585C6" fill-opacity="0.35"/>
<circle cx="15" cy="14" r="3" fill="#4585C6" fill-opacity="0.35"/>
<circle cx="27" cy="14" r="3" fill="#4585C6" fill-opacity="0.35"/>
<circle cx="39" cy="14" r="3" fill="#4585C6" fill-opacity="0.35"/>
<circle cx="51" cy="14" r="3" fill="#4585C6" fill-opacity="0.35"/>
<circle cx="63" cy="14" r="3" fill="#4585C6" fill-opacity="0.35"/>
<circle cx="3" cy="25" r="3" fill="#4585C6" fill-opacity="0.35"/>
<circle cx="15" cy="25" r="3" fill="#4585C6" fill-opacity="0.35"/>
<circle cx="27" cy="25" r="3" fill="#4585C6" fill-opacity="0.35"/>
<circle cx="39" cy="25" r="3" fill="#4585C6" fill-opacity="0.35"/>
<circle cx="51" cy="25" r="3" fill="#4585C6" fill-opacity="0.35"/>
<circle cx="63" cy="25" r="3" fill="#4585C6" fill-opacity="0.35"/>
<circle cx="3" cy="36" r="3" fill="#4585C6" fill-opacity="0.35"/>
<circle cx="15" cy="36" r="3" fill="#4585C6" fill-opacity="0.35"/>
<circle cx="27" cy="36" r="3" fill="#4585C6" fill-opacity="0.35"/>
<circle cx="39" cy="36" r="3" fill="#4585C6" fill-opacity="0.35"/>
<circle cx="51" cy="36" r="3" fill="#4585C6" fill-opacity="0.35"/>
<circle cx="63" cy="36" r="3" fill="#4585C6" fill-opacity="0.35"/>
<circle cx="3" cy="47" r="3" fill="#4585C6" fill-opacity="0.35"/>
<circle cx="15" cy="47" r="3" fill="#4585C6" fill-opacity="0.35"/>
<circle cx="27" cy="47" r="3" fill="#4585C6" fill-opacity="0.35"/>
<circle cx="39" cy="47" r="3" fill="#4585C6" fill-opacity="0.35"/>
<circle cx="51" cy="47" r="3" fill="#4585C6" fill-opacity="0.35"/>
<circle cx="63" cy="47" r="3" fill="#4585C6" fill-opacity="0.35"/>
<circle cx="3" cy="58" r="3" fill="#4585C6" fill-opacity="0.35"/>
<circle cx="15" cy="58" r="3" fill="#4585C6" fill-opacity="0.35"/>
<circle cx="27" cy="58" r="3" fill="#4585C6" fill-opacity="0.35"/>
<circle cx="39" cy="58" r="3" fill="#4585C6" fill-opacity="0.35"/>
<circle cx="51" cy="58" r="3" fill="#4585C6" fill-opacity="0.35"/>
<circle cx="63" cy="58" r="3" fill="#4585C6" fill-opacity="0.35"/>
</svg>
